0.06m3min_grf.mot
version=1
nRows=10
nColumns 19
inDegrees=yes
endheader
time	1_ground_force_vx	1_ground_force_vy	1_ground_force_vz	1_ground_force_px	1_ground_force_py	1_ground_force_pz	1_ground_torque_x	1_ground_torque_y	1_ground_torque_z	2_ground_force_vx	2_ground_force_vy	2_ground_force_vz	2_ground_force_px	2_ground_force_py	2_ground_force_pz	2_ground_torque_x	2_ground_torque_y	2_ground_torque_z
            3.699000	            0.779482	            5.406155	            0.479814	           -0.184595	            0.006115	           -0.378051	           -0.008288	           -0.057485	           -0.005102	           -0.037337	            9.062098	          -10.855124	           -0.090247	            0.005804	           -0.598478	           -0.000450	            0.109122	           -0.130713
            3.699500	            0.734289	            5.585232	            0.755836	           -0.186782	            0.006056	           -0.364354	           -0.003209	           -0.024407	           -0.003303	            0.102713	            9.245415	          -10.479102	           -0.095601	            0.005822	           -0.609007	            0.001976	            0.177874	           -0.201610
            3.700000	            0.917173	            5.766319	            0.572730	           -0.196154	            0.006092	           -0.373282	           -0.010388	           -0.065309	           -0.006487	           -0.413198	            9.426865	          -10.243585	           -0.080805	            0.005874	           -0.608764	           -0.010940	            0.249592	           -0.271216
            3.700500	            0.779515	            5.225889	            0.479041	           -0.184524	            0.006132	           -0.382088	           -0.026018	           -0.174425	           -0.015989	           -0.084584	            9.243901	          -10.244382	           -0.086773	            0.005884	           -0.617559	           -0.001558	            0.170271	           -0.188700
            3.701000	            0.871396	            5.405779	            0.571298	           -0.174251	            0.006132	           -0.381487	           -0.030653	           -0.190160	           -0.020097	           -0.083317	            8.876107	          -10.386480	           -0.082187	            0.005838	           -0.600045	           -0.001409	            0.150131	           -0.175678
            3.701500	            0.687520	            5.046195	            0.340928	           -0.183452	            0.006084	           -0.370691	           -0.033584	           -0.246500	           -0.016654	           -0.457451	            8.690605	          -10.386978	           -0.079990	            0.005816	           -0.591602	           -0.009013	            0.171235	           -0.204660
            3.702000	            0.733755	            4.144483	            0.428661	           -0.233013	            0.005581	           -0.255695	            0.656262	           -0.250140	            0.272802	           -0.177599	            9.059247	          -10.198071	           -0.077575	            0.005858	           -0.600795	           -0.002625	            0.133897	           -0.150730
            3.702500	            0.688074	            4.504612	            0.522032	           -0.233013	            0.005581	           -0.255695	            0.558381	           -0.176472	            0.327787	           -0.409998	            8.507128	          -10.528439	           -0.080075	            0.005788	           -0.583879	           -0.006853	            0.142197	           -0.175983
            3.703000	            0.733950	            4.324355	            0.521146	           -0.233013	            0.005581	           -0.255695	            0.576904	           -0.194289	            0.179241	           -0.175626	            8.506969	          -10.246970	           -0.077422	            0.005867	           -0.603268	           -0.001791	            0.086735	           -0.104476
            3.703500	            0.734208	            5.405163	            0.709207	           -0.200877	            0.006063	           -0.366744	           -0.013464	           -0.099119	           -0.013005	           -0.037173	            9.060759	          -10.479699	           -0.085692	            0.005842	           -0.604725	           -0.000742	            0.180951	           -0.209289
